<?xml version="1.0" encoding="UTF-8"?>
<!DOCTYPE svg PUBLIC "-//W3C//DTD SVG 1.1//EN" "http://www.w3.org/Graphics/SVG/1.1/DTD/svg11.dtd">
<!-- Creator: CorelDRAW X7 -->
<svg xmlns="http://www.w3.org/2000/svg" xml:space="preserve" width="43.4635mm" height="60.3566mm" version="1.1" style="shape-rendering:geometricPrecision; text-rendering:geometricPrecision; image-rendering:optimizeQuality; fill-rule:evenodd; clip-rule:evenodd"
viewBox="0 0 4423 6142"
 xmlns:xlink="http://www.w3.org/1999/xlink">
 <defs>
  <style type="text/css">
   <![CDATA[
    .fil0 {fill:#FEFEFE}
   ]]>
  </style>
 </defs>
 <g id="Layer_x0020_1">
  <metadata id="CorelCorpID_0Corel-Layer"/>
  <path class="fil0" d="M813 506c-12,4 -34,20 -61,44l2349 2373 0 -2500 408 0c-157,-113 -290,-193 -496,-273 -637,-247 -1338,-186 -1922,157 -35,20 -261,163 -278,199zm-143 123c-84,86 -175,190 -200,222 -99,128 -195,276 -264,430 -42,93 -106,239 -126,344 -45,100 -77,406 -79,535 -5,194 16,380 58,561 38,165 97,313 157,462 58,144 103,239 167,372 11,22 15,40 30,52 4,40 125,255 257,475l0 -3453zm85 3595c95,155 183,293 221,347l208 304c69,102 142,198 214,295 73,100 148,193 222,291 38,50 74,95 113,143 46,56 273,335 321,384 16,15 18,19 30,34l58 65c70,80 71,86 207,-71l358 -407c40,-48 76,-91 116,-140 299,-367 568,-740 821,-1145l-2352 -2371 0 2271 -537 0zm2973 -36c55,-90 130,-217 133,-239 15,-11 12,-13 21,-29 5,-12 10,-19 17,-31 73,-128 172,-338 229,-470 36,-83 209,-518 204,-590l8 -16c2,-6 4,-15 6,-21l28 -121c132,-628 -9,-1240 -370,-1753l-133 -166c-19,-20 -26,-33 -48,-54 -27,-24 -68,-64 -95,-93l0 3583z"/>
 </g>
</svg>
