<?xml version="1.0" encoding="UTF-8"?>
<!DOCTYPE svg PUBLIC "-//W3C//DTD SVG 1.1//EN" "http://www.w3.org/Graphics/SVG/1.1/DTD/svg11.dtd">
<!-- Creator: CorelDRAW X7 -->
<svg xmlns="http://www.w3.org/2000/svg" xml:space="preserve" width="235.534mm" height="161.192mm" version="1.1" style="shape-rendering:geometricPrecision; text-rendering:geometricPrecision; image-rendering:optimizeQuality; fill-rule:evenodd; clip-rule:evenodd"
viewBox="0 0 37669 25779"
 xmlns:xlink="http://www.w3.org/1999/xlink">
 <defs>
  <style type="text/css">
   <![CDATA[
    .fil0 {fill:#00A859}
    .fil6 {fill:#002D51}
    .fil5 {fill:#005467}
    .fil4 {fill:#00BBBB}
    .fil8 {fill:#32455C}
    .fil12 {fill:#6E7E8D}
    .fil7 {fill:#9CA7AF}
    .fil2 {fill:#C9E8F6}
    .fil10 {fill:#D77D6F}
    .fil9 {fill:#F4CEB0}
    .fil3 {fill:#FCB036}
    .fil1 {fill:#FEFEFE}
    .fil11 {fill:#FFE5D4}
   ]]>
  </style>
 </defs>
 <g id="Layer_x0020_1">
  <metadata id="CorelCorpID_0Corel-Layer"/>
  <g id="_315993368">
   <path class="fil0" d="M28639 17233l335 21c-7,291 12,236 -237,284l-98 -305zm1548 614l-289 -38c118,-225 171,-199 341,-337 273,-224 14,-328 387,-238l-439 613zm-9546 -2885c-299,-55 -93,-21 -177,-93 51,-141 225,-253 439,-440 9,-7 26,-20 39,-30 67,345 34,216 -50,537l-251 26zm5459 1613c94,241 162,630 5,855 -155,425 -548,725 -840,993 -272,250 -694,678 -1028,814l-98 -505c-152,-867 -305,-1366 -121,-2238 88,-284 172,-384 399,-441 714,-241 793,-268 1428,107l43 67 47 62 48 46 -48 -46 -47 -62 -43 -67c-161,-499 -380,-886 228,-1062 140,-41 216,-37 316,-121l182 -217c350,-374 176,-281 620,-209 47,-154 143,-273 288,-371 140,90 152,76 370,95l-75 324c452,192 467,362 565,-112l87 -270 290 472c145,346 433,528 648,823 296,407 -28,772 -156,1098 -93,238 -114,342 -394,378 -58,8 -423,0 -524,-63 -117,-73 -279,-344 -323,-482 -128,55 -94,46 -218,122 -244,-636 -781,-217 -1649,10zm-189 -3156c-347,-90 -490,14 -518,-412 440,-222 396,-265 607,-430l139 124c-198,160 -40,89 -85,351 -25,145 -99,250 -143,367zm-5557 -1378l1 244 -58 178 58 -178 100 175 609 -92c-97,603 -471,723 -756,1040 -533,592 -86,520 -145,1271l-476 355 63 420c-38,12 -136,51 -151,65 -169,159 -24,227 -230,398 41,-123 60,-89 -73,-89 12,122 -27,112 73,89 16,190 -39,50 85,250 49,79 87,116 161,178 122,102 268,190 474,189l217 -70c-41,11 29,112 -115,-5 -106,-87 -47,-34 -88,-166l53 -405c-78,-112 -32,-10 -48,-159l3 -199c-77,-240 -40,-82 69,-153l-22 -27 9 -129c154,-272 169,-207 474,-259 236,133 421,84 569,298 160,233 35,466 17,676 -26,111 140,131 -101,146 -61,281 -33,344 -233,431l-25 88c159,127 322,277 470,503 160,244 210,535 430,628 281,-109 388,-554 678,-717 20,-288 134,-370 282,-439 514,241 -53,537 169,550 -66,431 3,54 -114,216 -166,225 -301,540 -472,776 -791,1087 -584,117 -407,1874 96,947 -55,667 -355,586 37,468 -323,1604 -176,1898 163,-2 718,-166 896,-223l1708 -549c156,-59 254,-81 419,-145 181,-71 234,-104 433,-146l3 -432 1127 -29c132,82 300,57 495,58l-495 -58c48,-350 25,-76 -72,-186l-959 12c-240,-303 -443,-916 -516,-1383l308 -65c165,188 342,496 497,713 421,17 936,-203 1290,-141 5,-183 50,-199 -63,-251 -153,-70 23,12 -130,26l-145 -5c-147,-974 -8,-1594 1185,-1360 166,-253 358,-347 761,-358 206,643 209,421 141,781l-56 268c-298,-178 -47,-226 -423,-310 59,386 78,599 -169,769 -331,227 -65,57 -223,289 -116,170 -120,34 -283,233l-117 25c1,1 -106,255 117,-25 318,70 247,98 421,273 206,-48 732,-309 959,-423l4706 -2460c153,-106 242,-180 388,-289 175,-129 239,-202 403,-330l1040 -1104c793,-1069 1298,-1900 1814,-3208 721,-1826 1542,-4938 -212,-6672 -1726,-1706 -4634,-2232 -7012,-2297 -288,-8 -347,-60 -673,-60l-2808 17c-1587,218 -3139,-406 -4626,-1047l-3025 -1262c-722,-324 -2422,-952 -3219,-1070 -1161,-172 -5342,119 -6781,341 -2068,319 -4706,920 -6326,2306 -1131,968 -1840,2057 -2065,3633 -191,1348 -152,2101 1057,3040 2347,1824 5254,2904 7858,4329 191,104 304,185 491,265 -19,-685 -30,-1104 383,-1455 467,-397 891,-307 1408,-69l60 44 61 53 50 64 50 63 44 49 -44 -49 -50 -63 -50 -64 -61 -53 -60 -44 99 -219c-225,-99 -173,-120 -330,-290 -142,-153 -546,-324 -788,-351 -911,-101 -653,-453 -978,-761 -167,-158 -402,-520 -584,-602 76,253 17,68 112,228 40,69 80,121 111,171 68,107 144,237 191,349 -180,-144 -321,-292 -410,-488l-70 -132c-286,-485 -351,-278 -555,-636 -45,-80 -126,-206 -151,-292 -96,-319 87,-632 -79,-879 -65,-96 -90,-68 -150,-137 -162,-186 -49,-198 -247,-434 -478,-569 -442,-592 -1177,-754 -628,-138 -128,-38 -645,100 19,-242 -45,-167 140,-211 -240,38 -352,351 -611,520 -230,151 -67,70 -297,138 9,-12 24,-27 31,-35l63 -66c102,-110 120,-81 172,-251 -150,-33 -137,10 -320,-67 -16,-7 -62,-30 -78,-38 -180,-87 -453,-269 -169,-442 106,-64 220,-43 271,-175 -179,-111 -304,47 -536,-169 288,-265 239,-2 496,-113l-104 -78c-6,-4 -81,-55 -101,-69 -66,-44 -127,-83 -193,-135 611,-511 757,-370 1502,-281 445,53 840,218 1158,139 501,-125 956,-99 1454,72 155,-193 -104,250 18,-89 28,-76 85,-101 271,-165l-375 4c71,-82 69,-80 19,-182l-31 -57c-2,-5 -8,-22 -9,-26 -91,-249 216,74 -6,-56 -151,109 -131,144 -344,244l-250 -167c20,-51 47,-116 74,-184 6,-16 29,-73 33,-84l36 -87c97,-8 422,8 508,40 164,61 89,-45 98,92 11,152 34,50 -91,108 283,-111 287,2 438,19 80,9 187,6 225,18 77,25 47,20 90,51 20,14 52,68 58,55 5,-10 19,21 29,31 -70,-282 -70,-191 168,-307l261 620c-50,153 -152,97 -281,100 -354,8 -408,107 -779,-13 67,122 35,0 62,199 315,8 392,-105 526,113l98 -274c655,321 530,69 844,64 -284,-110 -135,-60 -150,-141 272,-80 167,73 226,292 73,-135 78,-108 169,-205 -167,-167 -232,-76 -211,-317l81 -487 398 12c-97,275 -76,119 -288,281 78,188 184,340 352,452 169,112 51,45 215,265 115,-111 79,-114 160,-231 96,-140 -106,-121 249,-95 123,241 106,387 -151,470l-132 43c-4,-9 -20,7 -29,13l480 283c-186,50 -96,1 -195,10 -303,27 -252,81 -360,-88l-48 -85c-144,260 -525,304 -596,716l187 205c10,7 23,17 33,23 10,7 25,15 36,21 10,5 483,235 769,256 27,279 58,380 274,432 58,-119 14,-256 1,-373 128,-77 123,-60 216,-149 -5,-239 -10,-129 -58,-244 -66,-162 -45,43 -54,-136 -1,-26 8,-306 8,-421 748,61 489,137 777,521 291,-36 173,-41 326,-218 64,84 145,207 199,300 144,251 193,220 404,396 24,20 92,99 98,113 58,122 14,259 -16,361 208,110 222,51 300,334 -152,-38 -413,-81 -508,-127l168 -354c-147,20 -450,111 -450,225 -238,-96 -22,-97 -372,-100l75 63c8,8 23,21 31,30 85,97 18,-13 56,88 2,4 8,157 32,227 383,107 230,-85 371,23 -113,38 -330,161 -407,245 -154,-58 -24,-3 -94,-82l-57 -83c-8,8 -22,16 -27,19l-355 319c-106,114 -74,36 -193,142 -465,414 123,256 -634,817 -12,305 148,407 35,598 -231,-250 -190,-492 -598,-453l-782 208c-11,346 -105,930 367,829 354,-76 69,-263 493,-254l-127 432c184,93 251,-38 374,107 112,131 -22,179 81,433 120,33 251,-23 344,-57 140,-50 103,-41 257,23 209,87 520,67 707,195 404,278 185,166 613,299 227,71 201,182 297,368 108,210 534,282 708,316 994,195 284,705 229,974 -58,283 -21,575 -316,669 252,155 348,203 504,417 125,172 298,412 333,563l-629 4 -69 216c-109,235 -205,148 -228,434 146,225 120,138 410,236 228,134 465,-159 885,-170 362,-10 657,117 873,303 301,258 794,1057 374,1639 -119,271 -292,503 -458,704 -205,248 -141,97 -134,358 7,225 37,268 -181,296l-283 -5 -482 515 13 1147 8 790c432,340 1002,506 1663,637 648,128 1611,-16 2271,-16l183 -2231c-239,-22 -99,-794 -59,-1204 187,-1885 604,-1468 116,-2219 -201,-309 -321,-637 -514,-950l-446 64c-106,-241 -65,-304 -231,-577 -141,-230 -122,-387 -169,-662 94,4 67,24 67,-76l-67 76c-497,241 -573,734 -728,155 -29,-105 -61,-262 -87,-393l-415 -2009c-256,66 -654,90 -885,-107 -170,-146 -169,-210 -311,-369 -164,-182 -191,-135 -148,-468 61,-470 -95,-574 249,-945 179,-194 196,-60 322,-342 171,-382 104,-126 283,-381 -538,-243 -359,-62 -356,-759 190,-1 545,79 625,-68 107,-196 -146,-347 -266,-390l166 -109c300,-157 346,-153 602,-405 69,-67 35,-51 125,-103 75,-43 124,-41 213,-85 -54,-339 -108,-262 144,-431 30,316 -226,482 393,409 907,-107 187,-470 768,-344l-46 -317c230,16 259,50 420,-50l-83 -29c-9,-1 -31,-7 -43,-8 -12,-1 -31,-2 -44,-2 -272,4 -134,82 -432,-31l-29 -269c145,-176 269,-169 322,-412 -371,8 -203,19 -357,201 -174,206 -463,316 -156,578l-188 312c-66,137 -127,166 -290,223 -53,-115 -137,-327 -172,-457 -181,53 -177,118 -392,120 -109,-166 -119,-286 -97,-500 336,-184 583,-411 780,-740 147,-246 356,-285 627,-384 709,-259 568,-83 744,29 279,177 769,80 837,489 -283,119 -358,47 -642,-11 144,192 47,225 234,370 240,-55 -61,-40 146,-110 145,-49 320,-264 488,-202l74 -283c6,-14 14,-35 25,-51 328,225 -109,-51 77,242 156,-40 166,-92 342,-180 279,-140 513,-16 776,-79 175,-43 -59,-83 66,-238 10,9 30,3 35,18l275 112c144,102 -22,-6 106,119 105,103 -13,62 179,113 -99,-212 -259,-360 14,-567l270 -53c24,93 119,643 -63,837l-73 63c630,-108 63,-549 260,-743 255,-156 -39,1 131,8 71,3 83,-116 284,-95 205,21 27,32 246,69 -168,-214 -73,90 -135,-269l426 -27c166,-221 158,-317 675,-349 571,-34 317,-103 679,-277 290,35 62,90 402,150 308,55 213,-61 390,169 -98,253 -371,238 -596,425 529,-220 474,-197 537,-103l647 102c428,32 -7,-78 377,-87 167,-3 140,-1 209,70 81,82 -6,125 123,321 278,-39 35,-49 263,-77 41,-5 294,14 307,12 360,-50 36,-47 270,-155 344,-160 761,211 1021,221 793,30 246,134 685,224l44 52 -44 -52c-201,-429 -391,-553 -343,-1151 169,310 38,-85 77,406 3,-517 343,-818 849,-581 -215,-142 -448,-206 -692,-11l-187 182c358,-836 1452,-177 1135,459 -89,331 -229,494 -355,779 157,-12 59,45 241,-171 883,114 777,257 1085,397 83,38 160,8 325,91 -44,123 -15,51 -91,139 -43,51 -96,91 -134,124l-452 -212c-261,407 -219,177 -135,443 -500,38 -407,133 -649,237 -200,86 -642,-42 -649,324 -3,175 25,158 -75,311 -148,224 -255,367 -410,411 -291,-965 556,-777 595,-1289 -411,474 -322,-100 -673,226 -160,148 -25,25 -91,181 -260,45 -1057,-251 -1471,522 114,65 954,24 60,1012 -202,223 -110,134 -339,199 -217,62 -161,117 -343,307 93,199 300,443 5,449 -145,3 -51,-84 -157,-285 -105,-197 -82,-121 -296,-218 -3,-1 -19,-15 -103,-50 -58,59 -60,50 -117,106 -100,98 -18,-5 -110,118 216,119 140,26 327,110 -80,62 -144,119 -203,175 394,589 -27,1026 -586,1171 -362,95 -179,-135 -478,173 82,262 196,209 246,415 74,301 -88,261 -272,424 -56,-53 -269,-389 -440,-218 -119,237 10,290 158,450 231,251 89,347 175,544l90 140c229,442 -129,257 620,365 -138,117 151,86 -266,87 -167,1 -510,-229 -615,-349 -103,-119 -143,-255 -233,-385 -124,-178 -192,-173 -285,-337 333,46 196,172 521,283l-352 -1137c-176,-104 -129,90 -273,-172l-124 -212c-7,-9 -18,-23 -25,-32l-53 -62c-5,-7 -17,-22 -26,-32 -439,131 -1065,553 -829,1064 69,150 15,-28 50,99 32,115 2,94 -34,155 -115,-132 -64,-53 -90,-298l-101 65c-50,24 25,8 -137,51 -119,-437 -269,-491 -307,-1077 -192,-33 127,119 -166,-1 -178,-72 7,42 -198,-162 -251,-250 -165,-107 -559,-150 -167,-18 -178,-43 -286,-79 -161,-54 -125,-21 -266,-63 -382,-112 -100,-277 -435,-249 12,186 101,260 222,393l89 97c163,-28 195,-61 297,-119 136,194 147,89 271,276 -192,393 -825,703 -1136,727zm8408 310c-74,417 -366,757 -504,1107 246,-96 412,72 545,188l315 447c-398,-59 -175,-129 -391,-211 -262,-100 -112,40 -358,116 -200,-107 -53,-110 -376,-112 50,-115 218,-214 -289,-386 -131,-45 -230,-90 -278,-227 -58,-165 -114,46 -5,-97 170,-132 146,109 328,215l197 -189c-72,-192 -826,-1240 -93,-1499l-192 257c-66,130 -74,214 -76,373 170,-406 208,-715 831,-584 -251,-133 -215,-56 -458,-80 -13,-1 -31,-4 -42,-6l-78 -19c1021,-147 989,580 924,707zm-907 -2153l-802 341c-24,-197 -59,-171 88,-280 297,-220 345,37 664,-472 88,-140 -23,-54 135,-136l-85 547zm-11803 -1615l-278 96c49,-201 55,-117 5,-305 259,-40 124,-66 346,-106 -20,99 -34,200 -73,315zm631 136l-445 87c-69,-135 41,-227 111,-453 -266,-188 -244,-282 -190,-510 18,6 44,-3 54,21 10,23 39,15 52,20 13,5 35,14 49,20 43,17 60,31 125,53 -59,196 -69,171 162,461 8,10 20,22 28,32 142,180 119,91 54,269zm-570 -1749c-68,72 -267,223 -439,229 -260,10 -353,-263 -355,-312 -2,-53 -122,-11 34,-54 212,-59 -38,48 192,48 306,0 344,-233 568,89zm-5064 -1665l23 83c54,262 -72,162 116,259 -149,-234 -29,-292 191,-313 4,0 112,6 129,6l385 48c-100,93 122,71 -170,69 -141,-1 -87,2 -167,-62 52,280 17,114 233,111 164,-2 578,190 719,294 224,167 129,73 85,301 262,63 363,153 569,230l-169 250c-211,-92 -113,-94 -327,-174 33,353 28,57 195,337 -184,478 -504,-11 -903,-76l-178 -37c188,-191 25,32 244,-97 114,-67 158,-201 214,-323 -292,-93 8,70 -198,-121 -305,-283 -278,-201 -593,-181 -727,47 -921,-465 -398,-604zm1645 1508c-44,-46 -183,34 -62,13 1,0 125,52 62,-13zm-2538 -1397c21,54 52,170 -10,223 -181,71 -245,-47 -430,-154 4,-2 101,-60 103,-62 166,-174 -104,66 43,-73 78,-73 124,-55 228,-79l66 145zm10732 584c200,-209 262,-505 554,-653 151,-76 750,-263 886,-182 -193,183 -450,141 -674,278 -154,95 -363,358 -442,465l156 254c-239,3 -331,-90 -480,-162zm-11870 -997c146,-52 29,-13 169,-189 195,240 200,29 278,248 -97,55 -392,112 -527,129 -156,20 -187,-15 -431,-139 150,-301 240,-206 511,-49zm1234 -798c98,-191 164,-205 382,-286 14,-5 29,-11 43,-16l541 -122c318,-32 28,23 283,-78 237,-94 615,-89 904,-77 390,16 558,5 753,203 -233,56 -305,107 -474,207l-401 226c-192,92 -491,382 -532,456 -113,203 52,-103 -19,167l-901 -24c88,-198 151,-78 155,-379 -256,119 -318,128 -545,-67l-189 -210zm252 147c0,-7 -10,-14 -15,-11 -83,53 20,14 22,15 0,0 -7,-2 -7,-4zm1899 399c20,-67 -134,101 31,-24l-173 -183c176,-140 453,-138 624,-247 -66,-155 -387,-129 85,-274 276,-84 75,35 233,-91 20,-16 -51,-51 222,-121 321,-82 370,12 415,24l225 -42c234,-67 149,-41 369,6 18,-35 -68,-54 63,-139l220 -68c502,-38 -98,96 545,-72 438,-115 834,59 1156,162 17,103 74,-42 -20,71 -7,9 -77,40 -94,48 142,21 93,27 151,73l64 93c53,-27 327,-95 389,-109 344,-76 354,65 355,65 -159,124 -265,156 -412,272 -17,13 -87,70 -94,77l-221 272c95,100 90,122 262,163 -117,107 -148,72 -284,111 135,107 171,64 190,213 11,82 9,130 -88,236 -167,181 -140,2 -181,258 -19,116 217,409 -448,573 -642,158 -283,50 -529,258 -204,171 -356,29 -515,267 -98,145 -163,369 -240,563 -646,5 -617,-531 -618,-534 -64,-157 -21,10 -141,-144 -88,-114 -134,-297 -8,-381 174,-115 -46,36 104,-3l68 -250c-360,107 -184,183 -360,24 81,-124 20,-37 131,-103l146 -66c-140,-132 -139,-102 -330,-70 28,-218 76,-209 -70,-418 -338,-485 -603,-334 -833,-329 -339,6 -97,-6 -389,-161zm2102 -930c0,-7 -13,-15 -19,-11l19 11zm-468 2352l0 0zm2177 -2381c-10,9 25,24 28,27l0 0c0,-13 -19,-35 -28,-27z"/>
   <path class="fil1" d="M19230 9240c187,137 61,103 225,196 433,-273 -258,-56 282,-253 51,107 -77,138 78,295 163,165 167,8 253,261 -405,209 -141,-80 -862,29 -149,23 -39,9 -133,7 -180,-5 -107,-240 -36,-342 56,-83 114,-142 193,-193zm1282 -253c98,44 -38,-5 88,65 307,171 187,-68 391,118 -57,162 -12,32 -199,136 62,176 268,399 231,746 -154,14 -127,54 -271,-36 -116,-73 -62,-51 -73,-150 -54,-517 34,-12 -159,-414l165 -241 -173 -224zm2149 857c-239,-228 -324,-668 -499,-843 -63,-76 -58,-28 -123,-180l-40 -333c40,-181 -8,-66 98,-164l39 -175c-29,-127 -67,-115 51,-92 -31,-95 -48,-76 50,-56 -23,-95 -41,-77 54,-55 -20,-98 -38,-81 57,-50 -24,-117 -36,-78 93,-50 262,-19 549,-117 812,65 192,132 331,324 361,662 -19,328 -484,1361 -810,1578l-143 -307zm-5953 3067c-126,-1498 13,-2200 1157,-2713 -44,-185 91,-60 -160,-108 -384,-73 -1128,187 -1329,175 340,-199 33,-184 388,-515l604 -269 643 560c3,-411 77,-172 -171,-387 -120,-104 -169,-141 -199,-321 446,109 609,571 741,756 1166,-31 1969,792 1972,1952 311,-24 944,-334 1136,-727 -124,-187 -135,-82 -271,-276 -102,58 -134,91 -297,119l-89 -97c-121,-133 -210,-207 -222,-393 335,-28 53,137 435,249 141,42 105,9 266,63 108,36 119,61 286,79 394,43 308,-100 559,150 205,204 20,90 198,162 293,120 -26,-32 166,1 38,586 188,640 307,1077 162,-43 87,-27 137,-51l101 -65c26,245 -25,166 90,298 36,-61 66,-40 34,-155 -35,-127 19,51 -50,-99 -236,-511 390,-933 829,-1064 9,10 21,25 26,32l53 62c7,9 18,23 25,32l124 212c144,262 97,68 273,172l352 1137c-325,-111 -188,-237 -521,-283 93,164 161,159 285,337 90,130 130,266 233,385 105,120 448,350 615,349 417,-1 128,30 266,-87 -749,-108 -391,77 -620,-365l-90 -140c-86,-197 56,-293 -175,-544 -148,-160 -277,-213 -158,-450 171,-171 384,165 440,218 184,-163 346,-123 272,-424 -50,-206 -164,-153 -246,-415 299,-308 116,-78 478,-173 559,-145 980,-582 586,-1171 59,-56 123,-113 203,-175 -187,-84 -111,9 -327,-110 92,-123 10,-20 110,-118 57,-56 59,-47 117,-106 84,35 100,49 103,50 214,97 191,21 296,218 106,201 12,288 157,285 295,-6 88,-250 -5,-449 182,-190 126,-245 343,-307 229,-65 137,24 339,-199 894,-988 54,-947 -60,-1012 414,-773 1211,-477 1471,-522 66,-156 -69,-33 91,-181 351,-326 262,248 673,-226 -39,512 -886,324 -595,1289 155,-44 262,-187 410,-411 100,-153 72,-136 75,-311 7,-366 449,-238 649,-324 242,-104 149,-199 649,-237 -84,-266 -126,-36 135,-443l452 212c38,-33 91,-73 134,-124 76,-88 47,-16 91,-139 -165,-83 -242,-53 -325,-91 -308,-140 -202,-283 -1085,-397 -182,216 -84,159 -241,171l-211 283c-143,-109 -88,-45 -167,-240l-62 -74 -44 -52c-439,-90 108,-194 -685,-224 -260,-10 -677,-381 -1021,-221 -234,108 90,105 -270,155 -13,2 -266,-17 -307,-12 -228,28 15,38 -263,77 -129,-196 -42,-239 -123,-321 -69,-71 -42,-73 -209,-70 -384,9 51,119 -377,87l-647 -102c-63,-94 -8,-117 -537,103 225,-187 498,-172 596,-425 -177,-230 -82,-114 -390,-169 -340,-60 -112,-115 -402,-150 -362,174 -108,243 -679,277 -517,32 -509,128 -675,349l-426 27c62,359 -33,55 135,269 -219,-37 -41,-48 -246,-69 -201,-21 -213,98 -284,95 -170,-7 124,-164 -131,-8 -197,194 370,635 -260,743l73 -63c182,-194 87,-744 63,-837l-270 53c-273,207 -113,355 -14,567 -192,-51 -74,-10 -179,-113 -128,-125 38,-17 -106,-119l-275 -112c-5,-15 -25,-9 -35,-18 -125,155 109,195 -66,238 -263,63 -497,-61 -776,79 -176,88 -186,140 -342,180 -186,-293 251,-17 -77,-242 -11,16 -19,37 -25,51l-74 283c-168,-62 -343,153 -488,202 -207,70 94,55 -146,110 -187,-145 -90,-178 -234,-370 284,58 359,130 642,11 -68,-409 -558,-312 -837,-489 -176,-112 -35,-288 -744,-29 -271,99 -480,138 -627,384 -197,329 -444,556 -780,740 -22,214 -12,334 97,500 215,-2 211,-67 392,-120 35,130 119,342 172,457 163,-57 224,-86 290,-223l188 -312c-307,-262 -18,-372 156,-578 154,-182 -14,-193 357,-201 -53,243 -177,236 -322,412l29 269c298,113 160,35 432,31 13,0 32,1 44,2 12,1 34,7 43,8l83 29c-161,100 -190,66 -420,50l46 317c-581,-126 139,237 -768,344 -619,73 -363,-93 -393,-409 -252,169 -198,92 -144,431 -89,44 -138,42 -213,85 -90,52 -56,36 -125,103 -256,252 -302,248 -602,405l-166 109c120,43 373,194 266,390 -80,147 -435,67 -625,68 -3,697 -182,516 356,759 -179,255 -112,-1 -283,381 -126,282 -143,148 -322,342 -344,371 -188,475 -249,945 -43,333 -16,286 148,468 142,159 141,223 311,369 231,197 629,173 885,107z"/>
   <path class="fil0" d="M14268 23275l-257 0c-63,232 -67,545 -118,803 -131,665 -185,562 -422,557 66,-291 118,-946 -53,-1262 -831,87 -1616,173 -2429,238l-1916 118c-314,-2 -381,-54 -638,-59 -16,103 -52,281 -52,397l15 156c2,15 6,31 8,44 15,123 88,-97 8,141 -113,250 -165,209 -434,170l-34 -933c-243,-122 -194,-66 -485,-112 -179,-28 -312,-75 -474,-87 -130,110 -352,651 -363,706 -68,342 14,-4 2,213 -17,322 -225,240 -462,174 -65,-338 189,-812 215,-1207 -798,0 -2275,-36 -2735,607 -145,203 -162,624 -61,877 358,899 2771,885 3573,885 1492,0 2806,-113 4344,-113 1462,0 2991,3 4347,-109 317,-27 742,-4 1069,-3 437,0 711,-55 1070,-59 2270,-28 4392,62 6604,114l2538 227c1075,58 2650,14 3605,-345 310,-118 1197,-688 1191,-1066 -125,-468 -934,-575 -1426,-662l-1903 -184c-193,78 -371,179 -576,270 -206,91 -381,232 -551,283 -14,13 -53,53 -59,60 -5,5 -25,42 -29,32 -4,-10 -17,22 -29,32l64 225 16 475c-367,71 -440,-283 -362,-339 -30,-93 -41,-130 -79,-213 -19,10 -97,36 -98,36 -5,1 -27,4 -30,-5 -3,-10 -19,-8 -29,-11 -382,-55 -309,-234 -671,-67 -244,112 -462,226 -712,110 -39,-274 44,-232 200,-375 292,65 -12,0 152,93 1,1 89,172 291,-42 -193,-130 -328,-104 -540,-227 -288,-168 -175,-253 -399,-337 -815,1 -1190,-43 -1884,-147 -235,-36 -731,-75 -936,-81 -166,-5 -344,9 -511,4 -262,-7 -240,-41 -453,-58l35 1320 2 232c-168,103 -525,224 -704,84 14,-123 -21,-103 93,-76 5,-95 -71,-65 115,-59 4,-91 -62,-57 98,-57 -43,-252 -115,-518 -176,-800 -25,-114 -47,-251 -76,-378 -48,-206 -10,-150 -117,-257l-903 22c-160,263 -231,1373 -367,1527 38,90 53,65 -45,75 -295,46 -476,59 -654,-110 57,-81 -37,-32 119,-101 55,-25 125,-27 184,-36l62 -63c-63,-403 114,-1008 -32,-1329l-4119 26c-143,148 -207,542 -277,770 -238,779 -103,309 -24,670l-340 -40c-238,-538 -48,-595 24,-1364z"/>
   <path class="fil1" d="M12244 17408c-2,-359 -5,-96 -95,-321 408,-359 -59,-414 642,-695 250,-101 228,-60 179,-380 351,33 123,21 227,-86 -109,-825 146,-587 388,-774 357,-276 -55,-166 603,-283 295,-94 258,-386 316,-669 55,-269 765,-779 -229,-974 -174,-34 -600,-106 -708,-316 -96,-186 -70,-297 -297,-368 -428,-133 -209,-21 -613,-299 -187,-128 -498,-108 -707,-195 -154,-64 -117,-73 -257,-23 -93,34 -224,90 -344,57 -103,-254 31,-302 -81,-433 -123,-145 -190,-14 -374,-107l127 -432c-424,-9 -139,178 -493,254 -472,101 -378,-483 -367,-829l782 -208c408,-39 367,203 598,453 113,-191 -47,-293 -35,-598 757,-561 169,-403 634,-817 119,-106 87,-28 193,-142l355 -319c5,-3 19,-11 27,-19l57 83c70,79 -60,24 94,82 77,-84 294,-207 407,-245 -141,-108 12,84 -371,-23 -24,-70 -30,-223 -32,-227 -38,-101 29,9 -56,-88 -8,-9 -23,-22 -31,-30l-75 -63c350,3 134,4 372,100 0,-114 303,-205 450,-225l-168 354c95,46 356,89 508,127 -78,-283 -92,-224 -300,-334 30,-102 74,-239 16,-361 -6,-14 -74,-93 -98,-113 -211,-176 -260,-145 -404,-396 -54,-93 -135,-216 -199,-300 -153,177 -35,182 -326,218 -288,-384 -29,-460 -777,-521 0,115 -9,395 -8,421 9,179 -12,-26 54,136 48,115 53,5 58,244 -93,89 -88,72 -216,149 13,117 57,254 -1,373 -216,-52 -247,-153 -274,-432 -286,-21 -759,-251 -769,-256 -11,-6 -26,-14 -36,-21 -10,-6 -23,-16 -33,-23l-187 -205c71,-412 452,-456 596,-716l48 85c108,169 57,115 360,88 99,-9 9,40 195,-10l-480 -283c9,-6 25,-22 29,-13l132 -43c257,-83 274,-229 151,-470 -355,-26 -153,-45 -249,95 -81,117 -45,120 -160,231 -164,-220 -46,-153 -215,-265 -168,-112 -274,-264 -352,-452 212,-162 191,-6 288,-281l-398 -12 -81 487c-21,241 44,150 211,317 -91,97 -96,70 -169,205 -59,-219 46,-372 -226,-292 15,81 -134,31 150,141 -314,5 -189,257 -844,-64l-98 274c-134,-218 -211,-105 -526,-113 -27,-199 5,-77 -62,-199 371,120 425,21 779,13 129,-3 231,53 281,-100l-261 -620c-238,116 -238,25 -168,307 -10,-10 -24,-41 -29,-31 -6,13 -38,-41 -58,-55 -43,-31 -13,-26 -90,-51 -38,-12 -145,-9 -225,-18 -151,-17 -155,-130 -438,-19 125,-58 102,44 91,-108 -9,-137 66,-31 -98,-92 -86,-32 -411,-48 -508,-40l-36 87c-4,11 -27,68 -33,84 -27,68 -54,133 -74,184l250 167c213,-100 193,-135 344,-244 222,130 -85,-193 6,56 1,4 7,21 9,26l31 57c50,102 52,100 -19,182l375 -4c-186,64 -243,89 -271,165 -122,339 137,-104 -18,89 -498,-171 -953,-197 -1454,-72 -318,79 -713,-86 -1158,-139 -745,-89 -891,-230 -1502,281 66,52 127,91 193,135 20,14 95,65 101,69l104 78c-257,111 -208,-152 -496,113 232,216 357,58 536,169 -51,132 -165,111 -271,175 -284,173 -11,355 169,442 16,8 62,31 78,38 183,77 170,34 320,67 -52,170 -70,141 -172,251l-63 66c-7,8 -22,23 -31,35 230,-68 67,13 297,-138 259,-169 371,-482 611,-520 -185,44 -121,-31 -140,211 517,-138 17,-238 645,-100 735,162 699,185 1177,754 198,236 85,248 247,434 60,69 85,41 150,137 166,247 -17,560 79,879 25,86 106,212 151,292 204,358 269,151 555,636l70 132c89,196 230,344 410,488 -47,-112 -123,-242 -191,-349 -31,-50 -71,-102 -111,-171 -95,-160 -36,25 -112,-228 182,82 417,444 584,602 325,308 67,660 978,761 242,27 646,198 788,351 157,170 105,191 330,290l-99 219 60 44 61 53 50 64 50 63 44 49c117,293 310,704 114,1070 -71,221 -135,244 -200,410 175,403 523,3 405,882 -42,314 -43,896 -254,1073 0,505 -70,188 25,597 97,418 -182,373 -194,378 123,462 38,-150 77,419 10,145 144,277 251,369 111,96 117,-68 67,172l451 0c-142,-124 -251,-140 -282,-508 133,-54 83,-113 236,-169zm-1910 -9402c-159,629 -497,1042 -729,1512 -110,-69 -35,15 -116,-83 -60,-72 -45,-69 -84,-162 -347,-423 -691,-1050 -563,-1710 127,227 10,80 21,526 107,-290 59,-436 304,-633 289,-233 462,-77 695,-133 -652,-195 -647,43 -959,264 154,-589 1369,-729 1431,419z"/>
   <path class="fil2" d="M8059 16689c-298,125 -489,392 -732,608 -416,371 -204,301 -848,225 -187,384 -390,1342 -397,1914 -8,600 -3,1841 171,2203l395 -10c754,20 1310,-43 2031,-115 153,10 403,-35 605,-60 537,-64 504,-13 334,-470l-1052 -3012c193,-129 376,-234 588,-372 409,-267 482,-551 823,-1208l338 -676 -282 -95 -113 -19 -1193 1063c-231,188 -283,122 -668,122l0 -98z"/>
   <path class="fil3" d="M18346 15002c25,94 45,75 -50,64l35 156 453 1111c193,313 313,641 514,950 488,751 71,334 -116,2219 -40,410 -180,1182 59,1204 515,-480 1582,-297 2308,-128 300,81 451,361 355,-586 -177,-1757 -384,-787 407,-1874 171,-236 306,-551 472,-776 -6,-321 136,-102 -140,-256 -39,-22 -126,-42 -197,-71 -290,163 -397,608 -678,717 -220,-93 -270,-384 -430,-628 -148,-226 -311,-376 -470,-503 -378,-33 60,142 -526,12l-253 -79c-206,1 -352,-87 -474,-189 -74,-62 -112,-99 -161,-178 -124,-200 -69,-60 -85,-250 -100,23 -61,33 -73,-89 -115,-116 -201,-307 -290,-454 -154,-251 -125,-357 -352,-436l-308 64z"/>
   <path class="fil1" d="M14037 6173l0 0zm2177 -2381c9,-8 28,14 28,27l0 0c-3,-3 -38,-18 -28,-27zm-1728 18c6,-4 19,4 19,11 0,3 7,5 7,5 -1,-1 -127,41 -26,-16zm-52 -11c-220,-47 -135,-73 -369,-6l-225 42c-45,-12 -94,-106 -415,-24 -273,70 -202,105 -222,121 -158,126 43,7 -233,91 -472,145 -151,119 -85,274 -171,109 -448,107 -624,247l173 183c-165,125 -11,-43 -31,24 292,155 50,167 389,161 230,-5 495,-156 833,329 146,209 98,200 70,418 191,-32 190,-62 330,70l-146 66c-111,66 -50,-21 -131,103 176,159 0,83 360,-24l-68 250c-150,39 70,-112 -104,3 -126,84 -80,267 8,381 120,154 77,-13 141,144 1,3 -28,539 618,534 77,-194 142,-418 240,-563 159,-238 311,-96 515,-267 246,-208 -113,-100 529,-258 665,-164 429,-457 448,-573 41,-256 14,-77 181,-258 97,-106 99,-154 88,-236 -19,-149 -55,-106 -190,-213 136,-39 167,-4 284,-111 -172,-41 -167,-63 -262,-163l221 -272c7,-7 77,-64 94,-77 147,-116 253,-148 412,-272 -1,0 -11,-141 -355,-65 -62,14 -336,82 -389,109l-64 -93c-58,-46 -9,-52 -151,-73 17,-8 87,-39 94,-48 94,-113 37,32 20,-71 -322,-103 -718,-277 -1156,-162 -643,168 -43,34 -545,72l-220 68c-131,85 -45,104 -63,139z"/>
   <path class="fil4" d="M18260 11063c1083,-370 1612,1308 542,1684 -1132,399 -1653,-1304 -542,-1684zm-1374 1255c-544,-1995 2545,-2898 3103,-853 -207,-636 -1118,-1090 -1887,-878 -802,222 -1183,941 -1216,1731zm979 -2120c-1144,513 -1283,1215 -1157,2713l415 2009c-10,-179 496,-381 853,-572 1015,-542 1622,-934 2321,-1885l58 -178 -1 -244c-3,-1160 -806,-1983 -1972,-1952l-517 109z"/>
   <path class="fil5" d="M19241 20706l-183 2231c-1,223 21,128 -54,276 146,321 -31,926 32,1329l-62 63c92,9 71,29 62,-63l324 33 10 202 -45 75c98,-10 83,15 45,-75 136,-154 207,-1264 367,-1527 12,-174 40,-295 92,-426 9,-402 368,-1052 558,-1346l161 1233c93,204 92,226 92,517 107,107 69,51 117,257 29,127 51,264 76,378 61,282 133,548 176,800 -160,0 -94,-34 -98,57 -186,-6 -110,-36 -115,59 -114,-27 -79,-47 -93,76 129,0 112,38 93,-76 231,29 61,7 115,-59l98 -57c174,-162 99,-126 396,-124l-35 -1320 3 -743c-147,-294 213,-1430 176,-1898 -726,-169 -1793,-352 -2308,128z"/>
   <path class="fil1" d="M25845 16160l43 67 47 62 48 46 117 240c868,-227 1405,-646 1649,-10 124,-76 90,-67 218,-122 44,138 206,409 323,482 101,63 466,71 524,63 280,-36 301,-140 394,-378 128,-326 452,-691 156,-1098 -215,-295 -503,-477 -648,-823l-290 -472 -87 270c-98,474 -113,304 -565,112l75 -324c-218,-19 -230,-5 -370,-95 -145,98 -241,217 -288,371 -444,-72 -270,-165 -620,209l-182 217c-100,84 -176,80 -316,121 -608,176 -389,563 -228,1062z"/>
   <path class="fil6" d="M13264 20229c-135,377 22,1054 42,1522 24,553 112,993 112,1622 171,316 119,971 53,1262 237,5 291,108 422,-557 51,-258 55,-571 118,-803l185 -1366c31,-302 -59,-248 125,-383 6,281 70,525 58,905 -9,320 -111,554 -111,844 -72,769 -262,826 -24,1364l340 40c-79,-361 -214,109 24,-670 70,-228 134,-622 277,-770 27,-374 178,-581 239,-923l-8 -790c-144,-252 -118,-742 -118,-1046 -6,114 -28,116 -215,174l-73 -235 -154 -364c-316,23 -1071,34 -1292,174z"/>
   <path class="fil7" d="M24829 21413c-38,393 18,941 56,1354 99,183 988,127 1239,152l101 54c0,-128 26,-99 -101,-54 219,-66 1189,-31 1380,52 -265,-35 -85,-12 -150,62l150 -62c365,-18 547,-238 922,-273 135,-95 296,-130 451,-213 -40,-153 21,-64 -126,-113 -146,100 -938,470 -1144,396l-20 -505c-53,-382 18,-891 -94,-1230l-1039 -23c-195,-1 -363,24 -495,-58l-1127 29 -3 432z"/>
   <path class="fil4" d="M16641 18511c420,-582 -73,-1381 -374,-1639 -216,-186 -511,-313 -873,-303 -420,11 -657,304 -885,170l80 94c-402,495 -587,695 -476,1460 34,235 53,265 166,408 8,9 23,26 29,33 6,8 21,22 29,34l422 241c4,-10 18,22 25,35 -192,179 -235,88 -475,-10 16,229 162,896 366,1043l89 -78 68 -49c299,-160 720,-467 1004,-689 508,-396 503,-565 799,-856l6 106zm-1359 -1237c774,-242 1112,995 363,1233 -851,270 -1209,-969 -363,-1233zm-1042 961c-149,-1150 793,-1722 1546,-1447 181,66 372,165 477,314 73,103 32,51 86,162l-144 -102c-151,-110 -269,-187 -488,-239 -847,-200 -1318,419 -1477,1312z"/>
   <path class="fil5" d="M13738 16555c-132,278 -94,133 -371,292 -160,93 -225,205 -319,357 -170,272 -363,568 -480,881l4 80c160,92 271,183 428,314l12 734c17,210 6,393 32,600 41,326 -27,357 220,416 221,-140 976,-151 1292,-174l154 364c-47,-226 -64,-143 -35,-342l89 -78 68 -49 -68 49 -89 78c-204,-147 -350,-814 -366,-1043 -34,-111 -24,-104 28,-266 -8,-12 -23,-26 -29,-34 -6,-7 -21,-24 -29,-33 -113,-143 -132,-173 -166,-408 -111,-765 74,-965 476,-1460l-80 -94c-290,-98 -264,-11 -410,-236l-361 52z"/>
   <path class="fil5" d="M6648 21629c-3,126 -50,735 -78,891 -40,216 -136,653 -191,812 -26,395 -280,869 -215,1207 237,66 445,148 462,-174 12,-217 -70,129 -2,-213 11,-55 233,-596 363,-706 68,-299 243,-578 363,-880 66,-166 111,-277 176,-443l194 -428c69,828 226,219 226,1950l34 933c269,39 321,80 434,-170 80,-238 7,-18 -8,-141 -2,-13 -6,-29 -8,-44l-15 -156c0,-116 36,-294 52,-397 113,-735 244,-1299 244,-2156 -721,72 -1277,135 -2031,115z"/>
   <path class="fil6" d="M6479 17522c644,76 432,146 848,-225 243,-216 434,-483 732,-608 191,-335 666,-508 376,-1181 -203,-475 -786,-367 -1206,-171 -818,383 -1060,1321 -1427,2014 110,53 521,156 677,171z"/>
   <path class="fil6" d="M27504 22971l-150 62c-365,47 -818,76 -1129,-60l-101 -54c-251,-25 -1140,31 -1239,-152 -53,67 -79,-101 -69,220 3,90 23,132 74,211 78,121 172,166 264,303 224,84 111,169 399,337 212,123 347,97 540,227 -202,214 -290,43 -291,42 -164,-93 140,-28 -152,-93 -156,143 -239,101 -200,375 250,116 468,2 712,-110 362,-167 289,12 671,67l192 -101 15 -98c25,-47 -25,-30 65,-55l79 -14c8,-1 30,1 44,6 97,-26 76,-40 47,57 -48,-97 10,-27 193,-87 170,-51 345,-192 551,-283 205,-91 383,-192 576,-270 134,-573 44,-438 -169,-803 -375,35 -557,255 -922,273z"/>
   <path class="fil1" d="M25959 20952l495 58 1039 23c112,339 41,848 94,1230 69,-177 54,-105 218,-172 124,93 101,33 226,292l169 -41c203,-489 122,-763 -108,-1159 -191,-326 -396,-584 -569,-926 -174,-175 -103,-203 -421,-273 -223,280 -116,26 -117,25l46 -105c-224,38 -96,192 -452,186 -93,-118 -42,6 -72,-188 -354,-62 -869,158 -1290,141 -155,-217 -332,-525 -497,-713l-308 65c73,467 276,1080 516,1383l959 -12c97,110 120,-164 72,186z"/>
   <path class="fil4" d="M24884 16496c689,-313 951,756 398,991 -647,274 -1101,-672 -398,-991zm-866 -2c-184,872 -31,1371 121,2238 319,-110 821,-386 1103,-559 206,-126 335,-210 493,-353 130,-118 260,-309 370,-390 157,-225 89,-614 -5,-855l-117 -240 -48 -46 -47 -62 -43 -67c-635,-375 -714,-348 -1428,-107 -122,110 -180,103 -248,264 -66,154 17,-75 -28,135l227 -169c634,-599 1408,-153 1558,327 -481,-683 -1688,-694 -1875,563 -31,-411 70,-425 90,-721 -102,37 -78,-61 -123,42z"/>
   <path class="fil4" d="M11128 13515c-218,673 -1199,397 -1019,-317 169,-668 1252,-405 1019,317zm-1516 40c-148,-1281 1403,-1583 1830,-644 -261,-188 -589,-532 -1158,-323 -393,144 -635,443 -672,967zm-120 411c-9,98 123,1060 205,1185 250,-252 752,-411 1056,-577 495,-270 600,-446 909,-789 196,-366 3,-777 -114,-1070l-44 -49 -50 -63 -50 -64 -61 -53 -60 -44c-517,-238 -941,-328 -1408,69 -413,351 -402,770 -383,1455z"/>
   <path class="fil1" d="M20297 12463c-228,755 -1228,1652 -1675,2045l32 430c227,79 198,185 352,436 89,147 175,338 290,454 133,0 114,-34 73,89 206,-171 61,-239 230,-398 15,-14 113,-53 151,-65l-63 -420 476 -355c59,-751 -388,-679 145,-1271 285,-317 659,-437 756,-1040l-609 92 -100 -175 -58 178z"/>
   <path class="fil1" d="M18260 11063c-1111,380 -590,2083 542,1684 1070,-376 541,-2054 -542,-1684z"/>
   <path class="fil1" d="M10489 4341c5,-3 15,4 15,11 0,2 7,4 7,4 -2,-1 -105,38 -22,-15zm-237 -136l189 210c227,195 289,186 545,67 -4,301 -67,181 -155,379l901 24c71,-270 -94,36 19,-167 41,-74 340,-364 532,-456l401 -226c169,-100 241,-151 474,-207 -195,-198 -363,-187 -753,-203 -289,-12 -667,-17 -904,77 -255,101 35,46 -283,78l-541 122c-14,5 -29,11 -43,16 -218,81 -284,95 -382,286z"/>
   <path class="fil6" d="M26169 19672c185,-156 1,61 96,-125 2,-3 60,-178 62,-186 58,-261 159,-631 517,-697 48,48 305,505 311,566 22,224 -40,88 -54,314 -12,211 85,87 -70,360l-46 105 117 -25c163,-199 167,-63 283,-233 158,-232 -108,-62 223,-289 247,-170 228,-383 169,-769 376,84 125,132 423,310l56 -268c68,-360 65,-138 -141,-781 -403,11 -595,105 -761,358 -1193,-234 -1332,386 -1185,1360z"/>
   <path class="fil4" d="M9325 8233c-321,-446 68,-865 422,-639 303,194 233,768 -422,639zm80 1040c75,-214 314,-393 489,-581 212,-229 272,-502 440,-686 -62,-1148 -1277,-1008 -1431,-419 312,-221 307,-459 959,-264 -233,56 -406,-100 -695,133 -245,197 -197,343 -304,633 -11,-446 106,-299 -21,-526 -128,660 216,1287 563,1710z"/>
   <path class="fil8" d="M17123 14920c26,131 58,288 87,393 155,579 231,86 728,-155l67 -76 193 -160c107,-260 41,-42 190,-220 128,-153 27,-98 116,-263l118 69c447,-393 1447,-1290 1675,-2045 -699,951 -1306,1343 -2321,1885 -357,191 -863,393 -853,572z"/>
   <path class="fil4" d="M23096 8851c-199,52 -316,55 -511,-1 -461,-881 963,-897 511,1zm-655 -1005c0,108 21,78 -93,50 48,119 62,98 -57,50 42,116 61,98 -54,55 47,117 68,103 -50,56 115,146 29,150 86,34 12,-6 30,-30 35,-20 11,22 218,-246 587,-202 187,22 197,79 250,129 -685,-105 -944,176 -947,825 -5,-12 -10,-47 -12,-37 -5,24 -21,-52 -27,-57 -121,-115 67,-59 -56,-10l59 282c175,175 260,615 499,843 300,-256 786,-781 953,-1271 -30,-338 -169,-530 -361,-662 -263,-182 -550,-84 -812,-65zm-344 478c41,128 -16,246 83,24 120,-273 -11,-159 -44,-199l-39 175z"/>
   <path class="fil1" d="M12632 6826c-121,21 18,-59 62,-13 63,65 -61,13 -62,13zm-394 -615c-56,122 -100,256 -214,323 -219,129 -56,-94 -244,97l178 37c399,65 719,554 903,76 -167,-280 -162,16 -195,-337 214,80 116,82 327,174l169 -250c-206,-77 -307,-167 -569,-230 44,-228 139,-134 -85,-301 -141,-104 -555,-296 -719,-294 -216,3 -181,169 -233,-111 80,64 26,61 167,62 292,2 70,24 170,-69l-385 -48c-17,0 -125,-6 -129,-6 -220,21 -340,79 -191,313 -188,-97 -62,3 -116,-259l-23 -83c-523,139 -329,651 398,604 315,-20 288,-102 593,181 206,191 -94,28 198,121z"/>
   <path class="fil0" d="M12244 17408c130,225 160,477 324,677 117,-313 310,-609 480,-881 94,-152 159,-264 319,-357 277,-159 239,-14 371,-292 -43,-146 -139,-221 -238,-318 -138,-110 -187,-187 -303,-311 -104,107 124,119 -227,86 49,320 71,279 -179,380 -701,281 -234,336 -642,695 90,225 93,-38 95,321z"/>
   <path class="fil1" d="M15282 17274c-846,264 -488,1503 363,1233 749,-238 411,-1475 -363,-1233z"/>
   <path class="fil6" d="M13197 15926c116,124 165,201 303,311 337,4 -62,80 104,-853 315,213 585,281 648,404 169,332 -82,-329 50,186l25 95 69 -216 629 -4c-35,-151 -208,-391 -333,-563 -156,-214 -252,-262 -504,-417 -658,117 -246,7 -603,283 -242,187 -497,-51 -388,774z"/>
   <path class="fil0" d="M10721 14925c192,146 815,978 892,1225 211,-177 212,-759 254,-1073 118,-879 -230,-479 -405,-882 -78,60 -703,669 -741,730z"/>
   <path class="fil4" d="M29693 5293c340,-242 586,329 260,499 -184,96 -326,-20 -388,-129 -153,-271 127,-370 128,-370zm-130 1163l44 52 62 74c92,-45 31,3 110,-63 34,-27 78,-80 110,-117 71,-82 107,-130 178,-217l335 -425c317,-636 -777,-1295 -1135,-459l187 -182c244,-195 477,-131 692,11 -506,-237 -846,64 -849,581 -39,-491 92,-96 -77,-406 -48,598 142,722 343,1151z"/>
   <path class="fil4" d="M27946 13202l91 80c136,-161 247,-286 386,-449 64,-76 332,-477 339,-482 65,-127 97,-854 -924,-707l78 19c11,2 29,5 42,6 243,24 207,-53 458,80 -623,-131 -661,178 -831,584 2,-159 10,-243 76,-373l192 -257c-733,259 21,1307 93,1499zm-34 -799c-141,-483 264,-643 475,-373 192,244 -40,609 -475,373z"/>
   <path class="fil1" d="M11128 13515c233,-722 -850,-985 -1019,-317 -180,714 801,990 1019,317z"/>
   <path class="fil1" d="M24884 16496c-703,319 -249,1265 398,991 553,-235 291,-1304 -398,-991z"/>
   <path class="fil8" d="M14832 19950l-68 49 -89 78c-29,199 -12,116 35,342l73 235c187,-58 209,-60 215,-174 0,304 -26,794 118,1046l-13 -1147c652,-643 428,-433 408,-715l190 -139c89,-34 100,-7 219,12 46,241 41,159 -52,332 218,-28 188,-71 181,-296 -7,-261 -71,-110 134,-358 166,-201 339,-433 458,-704l-6 -106c-296,291 -291,460 -799,856 -284,222 -705,529 -1004,689z"/>
   <path class="fil9" d="M26169 19672l145 5c153,-14 -23,-96 130,-26 113,52 68,68 63,251 30,194 -21,70 72,188 356,6 228,-148 452,-186 155,-273 58,-149 70,-360 14,-226 76,-90 54,-314 -6,-61 -263,-518 -311,-566 -358,66 -459,436 -517,697 -2,8 -60,183 -62,186 -95,186 89,-31 -96,125z"/>
   <path class="fil0" d="M17865 10198l517 -109c-132,-185 -295,-647 -741,-756 30,180 79,217 199,321 248,215 174,-24 171,387l-643 -560 -604 269c-355,331 -48,316 -388,515 201,12 945,-248 1329,-175 251,48 116,-77 160,108z"/>
   <path class="fil2" d="M16886 12318c33,-790 414,-1509 1216,-1731 769,-212 1680,242 1887,878 -558,-2045 -3647,-1142 -3103,853z"/>
   <path class="fil9" d="M20158 15350c101,128 113,-122 55,228l-33 -201c-109,71 -146,-87 -69,153 10,11 268,199 -3,199 16,149 -30,47 48,159l76 169c301,-36 142,-121 372,-75 151,31 188,98 318,163l204 -63c241,-15 75,-35 101,-146 -10,-11 -21,-28 -27,-37 -5,-8 -19,-26 -25,-36l-98 -193c-127,-209 -561,-480 -748,-265l-110 -123c-8,-10 -40,-46 -52,-61l-9 129z"/>
   <path class="fil8" d="M9697 15151l63 450 160 1c107,-159 19,-76 189,-169 -4,-267 -17,-146 110,-190 64,-23 66,-13 131,-51 120,-71 -29,-5 135,-94l236 -173c38,-61 663,-670 741,-730 65,-166 129,-189 200,-410 -309,343 -414,519 -909,789 -304,166 -806,325 -1056,577z"/>
   <path class="fil8" d="M24139 18732l98 505c334,-136 756,-564 1028,-814 292,-268 685,-568 840,-993 -110,81 -240,272 -370,390 -158,143 -287,227 -493,353 -282,173 -784,449 -1103,559z"/>
   <path class="fil10" d="M13500 16237c99,97 195,172 238,318l361 -52c23,-286 119,-199 228,-434l-25 -95c-132,-515 119,146 -50,-186 -63,-123 -333,-191 -648,-404 -166,933 233,857 -104,853z"/>
   <path class="fil1" d="M18005 15082c0,100 27,80 -67,76 47,275 28,432 169,662 166,273 125,336 231,577l446 -64 -453 -1111c-51,-67 -88,8 -35,-156 -28,-102 -51,-87 50,-64l-148 -80 -193 160z"/>
   <path class="fil1" d="M28258 13458c-173,60 -160,33 -221,-176l-91 -80 -197 189c-182,-106 -158,-347 -328,-215 -109,143 -53,-68 5,97 48,137 147,182 278,227 507,172 339,271 289,386 323,2 176,5 376,112 246,-76 96,-216 358,-116 216,82 -7,152 391,211l-315 -447c-133,-116 -299,-284 -545,-188z"/>
   <path class="fil0" d="M19829 22824c140,-56 515,-113 719,-113l-161 -1233c-190,294 -549,944 -558,1346z"/>
   <path class="fil6" d="M20167 15221c12,15 44,51 52,61l110 123c187,-215 621,56 748,265l98 193c6,10 20,28 25,36 6,9 17,26 27,37 18,-210 143,-443 -17,-676 -148,-214 -333,-165 -569,-298 -305,52 -320,-13 -474,259zm13 156l33 201c58,-350 46,-100 -55,-228l22 27zm-72 352c271,0 13,-188 3,-199l-3 199z"/>
   <path class="fil2" d="M14240 18235c159,-893 630,-1512 1477,-1312 219,52 337,129 488,239l144 102c-54,-111 -13,-59 -86,-162 -105,-149 -296,-248 -477,-314 -753,-275 -1695,297 -1546,1447z"/>
   <path class="fil1" d="M9325 8233c655,129 725,-445 422,-639 -354,-226 -743,193 -422,639z"/>
   <path class="fil0" d="M19455 9436c-164,-93 -38,-59 -225,-196 -79,51 -137,110 -193,193 -71,102 -144,337 36,342 94,2 -16,16 133,-7 721,-109 457,180 862,-29 -86,-253 -90,-96 -253,-261 -155,-157 -27,-188 -78,-295 -540,197 151,-20 -282,253z"/>
   <path class="fil8" d="M20103 16293l301 181c177,49 304,49 489,39 200,-87 172,-150 233,-431l-204 63c-130,-65 -167,-132 -318,-163 -230,-46 -71,39 -372,75l-76 -169 -53 405z"/>
   <path class="fil1" d="M23096 8851c452,-898 -972,-882 -511,-1 195,56 312,53 511,1z"/>
   <path class="fil11" d="M27587 22263l20 505c206,74 998,-296 1144,-396l-551 -30 -169 41c-125,-259 -102,-199 -226,-292 -164,67 -149,-5 -218,172z"/>
   <path class="fil1" d="M25911 13419c44,-117 118,-222 143,-367 45,-262 -113,-191 85,-351l-139 -124c-211,165 -167,208 -607,430 28,426 171,322 518,412z"/>
   <path class="fil1" d="M20888 6000c149,72 241,165 480,162l-156 -254c79,-107 288,-370 442,-465 224,-137 481,-95 674,-278 -136,-81 -735,106 -886,182 -292,148 -354,444 -554,653z"/>
   <path class="fil2" d="M24417 16053c-227,57 -311,157 -399,441 45,-103 21,-5 123,-42 -20,296 -121,310 -90,721 187,-1257 1394,-1246 1875,-563 -150,-480 -924,-926 -1558,-327l-227 169c45,-210 -38,19 28,-135 68,-161 126,-154 248,-264z"/>
   <path class="fil2" d="M9612 13555c37,-524 279,-823 672,-967 569,-209 897,135 1158,323 -427,-939 -1978,-637 -1830,644z"/>
   <path class="fil0" d="M20685 9211l-165 241c193,402 105,-103 159,414 11,99 -43,77 73,150 144,90 117,50 271,36 37,-347 -169,-570 -231,-746 187,-104 142,26 199,-136 -204,-186 -84,53 -391,-118 -126,-70 10,-21 -88,-65l173 224z"/>
   <path class="fil8" d="M22661 9844l143 307c326,-217 791,-1250 810,-1578 -167,490 -653,1015 -953,1271z"/>
   <path class="fil1" d="M16683 8719c65,-178 88,-89 -54,-269 -8,-10 -20,-22 -28,-32 -231,-290 -221,-265 -162,-461 -65,-22 -82,-36 -125,-53 -14,-6 -36,-15 -49,-20 -13,-5 -42,3 -52,-20 -10,-24 -36,-15 -54,-21 -54,228 -76,322 190,510 -70,226 -180,318 -111,453l445 -87z"/>
   <path class="fil8" d="M9405 9273c39,93 24,90 84,162 81,98 6,14 116,83 232,-470 570,-883 729,-1512 -168,184 -228,457 -440,686 -175,188 -414,367 -489,581z"/>
   <path class="fil1" d="M29693 5293c-1,0 -281,99 -128,370 62,109 204,225 388,129 326,-170 80,-741 -260,-499z"/>
   <path class="fil1" d="M27912 12403c435,236 667,-129 475,-373 -211,-270 -616,-110 -475,373z"/>
   <path class="fil1" d="M27940 9651c-158,82 -47,-4 -135,136 -319,509 -367,252 -664,472 -147,109 -112,83 -88,280l802 -341 85 -547z"/>
   <path class="fil2" d="M22187 8057c118,47 97,61 50,-56 115,43 96,61 54,-55 119,48 105,69 57,-50 114,28 93,58 93,-50 -129,-28 -117,-67 -93,50 -95,-31 -77,-48 -57,50 -95,-22 -77,-40 -54,55 -98,-20 -81,-39 -50,56 -118,-23 -80,-35 -51,92 33,40 164,-74 44,199 -99,222 -42,104 -83,-24 -106,98 -58,-17 -98,164l40 333c65,152 60,104 123,180l-59 -282c123,-49 -65,-105 56,10 6,5 22,81 27,57 2,-10 7,25 12,37 3,-649 262,-930 947,-825 -53,-50 -63,-107 -250,-129 -369,-44 -576,224 -587,202 -5,-10 -23,14 -35,20 -57,116 29,112 -86,-34z"/>
   <path class="fil1" d="M15674 7199c172,-6 371,-157 439,-229 -224,-322 -262,-89 -568,-89 -230,0 20,-107 -192,-48 -156,43 -36,1 -34,54 2,49 95,322 355,312z"/>
   <path class="fil9" d="M22446 17015c71,29 158,49 197,71 276,154 134,-65 140,256 117,-162 48,215 114,-216 -222,-13 345,-309 -169,-550 -148,69 -262,151 -282,439z"/>
   <path class="fil1" d="M9018 5003c-271,-157 -361,-252 -511,49 244,124 275,159 431,139 135,-17 430,-74 527,-129 -78,-219 -83,-8 -278,-248 -140,176 -23,137 -169,189z"/>
   <path class="fil9" d="M10109 15433l-76 188 282 95c42,-37 10,-17 92,-79 64,-48 82,-57 134,-91 0,-242 28,-278 -56,-448 -164,89 -15,23 -135,94 -65,38 -67,28 -131,51 -127,44 -114,-77 -110,190z"/>
   <path class="fil8" d="M28037 13282c61,209 48,236 221,176 138,-350 430,-690 504,-1107 -7,5 -275,406 -339,482 -139,163 -250,288 -386,449z"/>
   <path class="fil8" d="M29669 6582c79,195 24,131 167,240l211 -283c126,-285 266,-448 355,-779l-335 425c-71,87 -107,135 -178,217 -32,37 -76,90 -110,117 -79,66 -18,18 -110,63z"/>
   <path class="fil6" d="M18974 24605c-59,9 -129,11 -184,36 -156,69 -62,20 -119,101 178,169 359,156 654,110l45 -75 -10 -202 -324 -33c9,92 30,72 -62,63z"/>
   <path class="fil1" d="M26225 22973c311,136 764,107 1129,60 65,-74 -115,-97 150,-62 -191,-83 -1161,-118 -1380,-52 127,-45 101,-74 101,54z"/>
   <path class="fil11" d="M13012 19213l-12 -734c-157,-131 -268,-222 -428,-314 64,219 120,303 203,506 86,212 139,366 237,542z"/>
   <path class="fil1" d="M20641 14962l251 -26c84,-321 117,-192 50,-537 -13,10 -30,23 -39,30 -214,187 -388,299 -439,440 84,72 -122,38 177,93z"/>
   <path class="fil1" d="M30626 17234c-373,-90 -114,14 -387,238 -170,138 -223,112 -341,337l289 38 439 -613z"/>
   <path class="fil6" d="M21009 24663l-98 57c-54,66 116,88 -115,59 19,114 36,76 -93,76 179,140 536,19 704,-84l-2 -232c-297,-2 -222,-38 -396,124z"/>
   <path class="fil9" d="M18198 14922l148 80c-101,-23 -78,-38 -50,64 -53,164 -16,89 35,156l-35 -156c95,11 75,30 50,-64l308 -64 -32 -430 -118 -69c-89,165 12,110 -116,263 -149,178 -83,-40 -190,220z"/>
   <path class="fil10" d="M15103 20379l482 -515 283 5c93,-173 98,-91 52,-332 -119,-19 -130,-46 -219,-12l-190 139c20,282 244,72 -408,715z"/>
   <path class="fil1" d="M9716 5485c185,107 249,225 430,154 62,-53 31,-169 10,-223l-66 -145c-104,24 -150,6 -228,79 -147,139 123,-101 -43,73 -2,2 -99,60 -103,62z"/>
   <path class="fil6" d="M27303 24587l-234 -48c-78,56 -5,410 362,339l-16 -475c-2,7 -42,90 -52,108 -5,8 -24,47 -28,38 -4,-10 -22,25 -32,38z"/>
   <path class="fil9" d="M27040 24147l-15 98 -35 81c38,83 49,120 79,213l234 48 -28 -446c-77,6 -59,22 -47,-57l-188 63z"/>
   <path class="fil9" d="M20089 16534l253 79c586,130 148,-45 526,-12l25 -88c-185,10 -312,10 -489,-39l-301 -181c41,132 -18,79 88,166 144,117 74,16 115,5l-217 70z"/>
   <path class="fil10" d="M14309 19034c240,98 283,189 475,10 -7,-13 -21,-45 -25,-35l-422 -241c-52,162 -62,155 -28,266z"/>
   <path class="fil1" d="M16052 8583c39,-115 53,-216 73,-315 -222,40 -87,66 -346,106 50,188 44,104 -5,305l278 -96z"/>
   <path class="fil1" d="M28639 17233l98 305c249,-48 230,7 237,-284l-335 -21z"/>
   <path class="fil12" d="M27040 24147l-15 98 -192 101c10,3 26,1 29,11 3,9 25,6 30,5 1,0 79,-26 98,-36l35 -81 15 -98 188 -63c-12,79 -30,63 47,57l28 446c10,-13 28,-48 32,-38 4,9 23,-30 28,-38 10,-18 50,-101 52,-108l-64 -225c12,-10 25,-42 29,-32 4,10 24,-27 29,-32 6,-7 45,-47 59,-60 -183,60 -241,-10 -193,87 29,-97 50,-83 -47,-57 -14,-5 -36,-7 -44,-6l-79 14c-90,25 -40,8 -65,55z"/>
  </g>
 </g>
</svg>
